<svg id="Layer_1" data-name="Layer 1" xmlns="http://www.w3.org/2000/svg" viewBox="0 0 180 180"><defs><style>.cls-1{fill:#09253f;}</style></defs><path class="cls-1" d="M88.56,141.56H47.37c-9.71,0-17.32-7.17-17.35-16.91-.08-23.06.12-46.13.08-69.2a16.84,16.84,0,0,1,17.36-17c25.48.37,51,.12,76.46.07,4.78,0,8.85,1.3,11.77,5.31,3.21,4.4,2.88,8.43-.79,12.39q-16.35,17.62-32.56,35.38c-3,3.37-3,4.31,0,7.6,10.38,11.34,21,22.5,31.32,33.85,1.34,1.47,2.92,3.82,2.61,5.43-.54,2.85-3.47,3.06-6.16,3.05-13.84-.06-27.69,0-41.53,0Zm0-21.88c1.86,0,3.73.1,5.59,0,3.13-.21,4.16-1.62,3.86-4.72-.41-4.25-.56-8.54-1.07-12.78-.58-4.84.06-8.73,3.79-12.7,5.41-5.77,3.55-15.37-2.92-20.35C90.93,63.76,82.05,65,76.64,72a15.08,15.08,0,0,0,2.22,20.71,5.77,5.77,0,0,1,1.9,4c0,4.71-.54,9.41-.75,14.12C79.61,119.57,78.38,119.79,88.61,119.68Z"/><path class="cls-1" d="M149.53,67.78c1.66,5.63-1.23,10.7-6.34,15.12-3.06,2.64-5.67,5.8-8.5,8.72-2.5,2.57-2.58,3.72-.14,6.4,4.43,4.87,9,9.64,13.33,14.56a6.44,6.44,0,0,1,1.65,3.69c.18,5.16.16,10.32,0,15.47A3.93,3.93,0,0,1,148,134.6c-.45.29-2-.55-2.67-1.25q-16.05-17-32-34.1c-2.88-3.1-2.71-5.17.18-8.24q16.14-17.13,32.28-34.25c.59-.62,1.79-1.38,2.32-1.16a3.05,3.05,0,0,1,1.3,2.32C149.63,60.77,149.53,63.62,149.53,67.78Z"/></svg>